<?xml version="1.0" encoding="utf-8"?>
<!-- Generator: Adobe Illustrator 22.1.0, SVG Export Plug-In . SVG Version: 6.00 Build 0)  -->
<svg version="1.1" id="Layer_1" xmlns="http://www.w3.org/2000/svg" xmlns:xlink="http://www.w3.org/1999/xlink" x="0px" y="0px"
	 viewBox="0 0 1920 1080" style="enable-background:new 0 0 1920 1080;" xml:space="preserve">
<style type="text/css">
	.st0{fill:url(#SVGID_1_);}
	.st1{fill:url(#SVGID_2_);}
	.st2{fill:url(#SVGID_3_);}
	.st3{fill:url(#SVGID_4_);}
</style>
<g id="x_1_">
	<g id="left_2_">
		<linearGradient id="SVGID_1_" gradientUnits="userSpaceOnUse" x1="891.9573" y1="411.4167" x2="891.9573" y2="499.0534">
			<stop  offset="0" style="stop-color:#C8C8C8"/>
			<stop  offset="1" style="stop-color:#EFEFEF"/>
		</linearGradient>
		<polygon class="st0" points="939.5,411.4 875.6,499.1 844.4,493.6 		"/>
		<linearGradient id="SVGID_2_" gradientUnits="userSpaceOnUse" x1="791.6794" y1="253.5114" x2="232.4427" y2="812.7481">
			<stop  offset="0" style="stop-color:#DCDCDC"/>
			<stop  offset="1" style="stop-color:#EFEFEF"/>
		</linearGradient>
		<polygon class="st1" points="944.9,406.7 944.9,673.3 472.2,1052.5 875.6,499.1 939.5,411.4 844.4,493.6 802,530.4 472.2,0 
			910.6,377.2 943.6,405.6 		"/>
	</g>
	<g id="right_2_">
		<linearGradient id="SVGID_3_" gradientUnits="userSpaceOnUse" x1="1074.8678" y1="625.8541" x2="981.3025" y2="624.2209">
			<stop  offset="0" style="stop-color:#EFEFEF"/>
			<stop  offset="0.343" style="stop-color:#E6E6E6"/>
			<stop  offset="0.9117" style="stop-color:#CCCCCC"/>
			<stop  offset="0.9944" style="stop-color:#C8C8C8"/>
		</linearGradient>
		<polygon class="st2" points="1075.6,586.4 980.5,668.6 1044.4,580.9 		"/>
		<linearGradient id="SVGID_4_" gradientUnits="userSpaceOnUse" x1="1211.4504" y1="1080" x2="1211.4504" y2="27.4809">
			<stop  offset="0" style="stop-color:#EFEFEF"/>
			<stop  offset="0.5899" style="stop-color:#E6E6E6"/>
			<stop  offset="1" style="stop-color:#DCDCDC"/>
		</linearGradient>
		<polygon class="st3" points="1118,549.6 1447.8,1080 1009.4,702.8 976.4,674.4 975.1,673.3 975.1,406.7 1447.8,27.5 1044.4,580.9 
			980.5,668.6 1075.6,586.4 		"/>
	</g>
</g>
</svg>
